<svg id="Layer_1" data-name="Layer 1" xmlns="http://www.w3.org/2000/svg" viewBox="0 0 600 600.01"><defs><style>.cls-1{fill:#fafbfc;}.cls-2{fill:#ccc;}</style></defs><title>Artboard 1 copy 2</title><path class="cls-1" d="M300.4,172.88h.18l8.63-8.94c22.23,15.07,40.61,12.81,40.61,12.81s-28.21-5.45-30.94-24.7c0,0-10.39-3.91-12.26-9.88,0,0-1.54,5.8,6.47,14.65l-8.18-8s-2.21-2.39-4.51-2.39h.18c-2.3,0-4.51,2.39-4.51,2.39l-8.18,8c8-8.85,6.47-14.65,6.47-14.65-1.87,6-12.26,9.88-12.26,9.88-2.73,19.25-30.94,24.7-30.94,24.7s18.37,2.26,40.6-12.81l8.64,8.94h0Z"/><path class="cls-1" d="M357,212.76l-12.12,6.9s1.19,2.72,5.19,2.72S357.36,218.21,357,212.76Z"/><path class="cls-1" d="M339.79,223.57s.85,8.69,5.11,15l-10.75,29.9-6.66,3.06Z"/><polygon class="cls-1" points="300.67 307.64 314.53 307.64 304.95 314.03 300.67 312.37 300.31 312.37 296.03 314.03 286.45 307.64 300.31 307.64 300.67 307.64"/><polygon class="cls-1" points="301.48 326.8 312.98 326.8 322.18 315.56 324.86 343.92 300.54 383.53 300.44 383.53 276.12 343.92 278.8 315.56 288 326.8 299.5 326.8 301.48 326.8"/><polygon class="cls-1" points="253.52 271.87 259.14 286.94 266.55 293.07 262.71 328.85 241.76 295.37 253.52 271.87"/><polygon class="cls-1" points="346.48 271.87 340.86 286.94 333.45 293.07 337.28 328.85 358.23 295.37 346.48 271.87"/><path class="cls-1" d="M259,169.23l-17-1.49-3.32,3s-21.13,1-47-11.25c0,0-5.79,31.83,34.45,40.59-9.4-3-27.23-11.55-27.42-32.37l25.53,11.54,11.13-2.21L230,182.18l7.2,3.92C240,179.27,246,172.15,259,169.23Z"/><path class="cls-1" d="M341.24,169.23l16.95-1.49,3.32,3s21.12,1,47-11.25c0,0,5.8,31.83-34.45,40.59,9.4-3,27.24-11.55,27.43-32.37L376,179.28l-11.13-2.21,5.37,5.11L363,186.1C360.25,179.27,354.22,172.15,341.24,169.23Z"/><path class="cls-1" d="M243.69,212.76l12.11,6.9s-1.19,2.72-5.19,2.72S243.34,218.21,243.69,212.76Z"/><path class="cls-1" d="M260.91,223.57s-.85,8.69-5.11,15l10.75,29.9,6.66,3.06Z"/><path class="cls-1" d="M300.3,254.53l-23.46,15-7-42.42,10.9-9.11-4.09-6.9,10.26-13.32-16.73,13,4.09,4.77-7.15,3.92s-27.45-14.36-31.88-16.57c7.43-1.66,8.2-5.58,8.2-5.58s17.2,7.67,20.1,10.9c-4.77-10.59-14.75-16.82-14.75-16.82s16.07-23.21,51.41-14.22h.28c35.35-9,51.42,14.22,51.42,14.22s-10,6.23-14.76,16.82c2.9-3.23,20.1-10.9,20.1-10.9s.77,3.92,8.2,5.58c-4.43,2.21-31.87,16.57-31.87,16.57l-7.16-3.92,4.09-4.77-16.73-13L324,211.14,320,218l10.9,9.11-7,42.42-23.46-15Z"/><path class="cls-1" d="M267.24,131.59l-9.37,6.3s5.42,8.3-6.57,19.42l6.64,7.32s15.34-6,16.87-14.82l-2.37-2.58s6.72-1.68,8.94-4.92Z"/><path class="cls-1" d="M209.76,115.16c3.14,4.59-1.39,15.58-1.39,15.58a45.16,45.16,0,0,0-10.3-.83l-4.46-8.63A49.29,49.29,0,0,1,209.76,115.16Z"/><path class="cls-1" d="M215.87,114.35s-3.24,2,0,5.45,3.6-.66-.15,13.13a72.15,72.15,0,0,1,13.06,6.53s10.77-4.5,3.78-14.89c0,0,8-1.33,8.87-6.27A71.52,71.52,0,0,0,215.87,114.35Z"/><path class="cls-1" d="M235.88,144.2s8.27-7.7,2.82-16.47a12.69,12.69,0,0,0,6.59-8.07,115.94,115.94,0,0,1,18,9.46s-1.8,2.47-14.28,6a7.5,7.5,0,0,1,2.29,9.71c-2.84,6.13-6.43,6.68-6.43,6.68S238.82,146.29,235.88,144.2Z"/><path class="cls-1" d="M174.48,141.13s2.22-5.79,13.38-15.7l2.74,5.72A36.24,36.24,0,0,0,174.48,141.13Z"/><path class="cls-1" d="M332.22,131.59l9.37,6.3s-5.42,8.3,6.56,19.42l-6.64,7.32s-15.33-6-16.86-14.82l2.37-2.58s-6.73-1.68-8.94-4.92Z"/><path class="cls-1" d="M389.69,115.16c-3.13,4.59,1.39,15.58,1.39,15.58a45.29,45.29,0,0,1,10.31-.83l4.45-8.63A49.29,49.29,0,0,0,389.69,115.16Z"/><path class="cls-1" d="M383.59,114.35s3.23,2,0,5.45-3.6-.66.15,13.13a72.15,72.15,0,0,0-13.06,6.53s-10.77-4.5-3.79-14.89c0,0-8-1.33-8.87-6.27A71.61,71.61,0,0,1,383.59,114.35Z"/><path class="cls-1" d="M363.58,144.2s-8.27-7.7-2.82-16.47a12.69,12.69,0,0,1-6.6-8.07,115.6,115.6,0,0,0-18,9.46s1.8,2.47,14.28,6a7.51,7.51,0,0,0-2.3,9.71c2.85,6.13,6.44,6.68,6.44,6.68S360.64,146.29,363.58,144.2Z"/><path class="cls-1" d="M425,141.13s-2.22-5.79-13.39-15.7l-2.73,5.72A36.24,36.24,0,0,1,425,141.13Z"/><polygon class="cls-1" points="300.52 263.18 300.46 263.18 276.15 278 276.15 285.02 281.26 300.99 298.19 300.99 298.19 284.93 287.58 285.11 283.38 277.66 300.49 283.83 317.6 277.66 313.4 285.11 302.79 284.93 302.79 300.99 319.72 300.99 324.83 285.02 324.83 278 300.52 263.18"/><path class="cls-1" d="M158.42,444.06H146.19l-.45-21.78-5,21.78H130l-5-21.78-.44,21.78H112.39l2.2-38h16l4.8,20.67L140.23,406h16Z"/><path class="cls-1" d="M199.77,444.06H186.26l-1.48-5.35H173.92l-1.44,5.35H159.53l13.23-38h13.78Zm-17.58-14.89L179.37,419l-2.81,10.2Z"/><path class="cls-1" d="M231.47,439.92c-3.58,2.76-8.54,4.14-15.16,4.14H202V406h14.33c6.62,0,11.58,1.37,15.16,4.13s6.34,7.17,6.34,14.89S235.06,437.17,231.47,439.92ZM223,418.15c-1.1-1.11-3-1.93-5.79-1.93h-2.87v17.36h2.87c2.76,0,4.69-.82,5.79-1.93s2.2-2.75,2.2-6.61S224.2,419.25,223,418.15Z"/><path class="cls-1" d="M275.58,441.47c-3,2.31-6.84,3.25-11.25,3.25a24.09,24.09,0,0,1-14.67-5.07l5.52-9.37a19.23,19.23,0,0,0,10.14,4.13c1.66,0,2.81-.5,2.81-1.6s-1.37-1.54-2.75-2-4.41-1.38-5.52-1.77a17.12,17.12,0,0,1-5.23-2.81c-1.93-1.65-3.48-4-3.48-8.1a12,12,0,0,1,4.41-9.21c2.32-1.93,6.12-3.31,11.2-3.31a22,22,0,0,1,13.56,4.58L275.58,419a15.74,15.74,0,0,0-9-3.64c-2,0-3.09.38-3.09,1.54s1.76,1.49,2.64,1.77,3.2.93,4.53,1.37a21,21,0,0,1,6.34,3.2,10.38,10.38,0,0,1,3.58,8.27A12.65,12.65,0,0,1,275.58,441.47Z"/><path class="cls-1" d="M316.1,439.92c-1.38,1.38-5.24,4.8-13.51,4.8-11.3,0-20.4-7-20.4-19.63s9.1-19.63,20.4-19.63c8.55,0,12.68,3.59,12.68,3.59L312,419.52s-3.86-3.3-8.54-3.3-8.71,2.75-8.71,8.71,4.3,8.54,8.71,8.54a12.74,12.74,0,0,0,9.1-3.47Z"/><path class="cls-1" d="M353.31,444.06H339l-6.07-12.68h-1.6v12.68H318.85V406h16.54c4.69,0,8.27.82,11,2.75a11.23,11.23,0,0,1,4.69,9.38c0,7.71-4.69,10.47-6.34,11.46Zm-16.15-27.95a4.25,4.25,0,0,0-2.76-.72h-3.14V422h3.14a4.53,4.53,0,0,0,2.76-.66,2.82,2.82,0,0,0,1.38-2.64A2.73,2.73,0,0,0,337.16,416.11Z"/><path class="cls-1" d="M392.18,444.06H378.67l-1.49-5.35H366.32l-1.43,5.35h-13l13.23-38H379Zm-17.59-14.89L371.78,419,369,429.17Z"/><path class="cls-1" d="M417,415.72h-9v28.34H395.6V415.72h-8.93V406H417Z"/><path class="cls-1" d="M449.57,439.92c-1.38,1.38-5.24,4.8-13.51,4.8-11.3,0-20.4-7-20.4-19.63s9.1-19.63,20.4-19.63c8.55,0,12.68,3.59,12.68,3.59l-3.3,10.47s-3.86-3.3-8.55-3.3-8.71,2.75-8.71,8.71,4.3,8.54,8.71,8.54A12.74,12.74,0,0,0,446,430Z"/><path class="cls-1" d="M487.61,444.06H475.15V430H464.79v14.06H452.33V406h12.46V419.8h10.36V406h12.46Z"/><path class="cls-2" d="M213.77,482.23c-.4.41-3,3.47-9.06,3.47a11,11,0,0,1,0-22,10.73,10.73,0,0,1,8.63,3.71l-2,1.88a8.23,8.23,0,0,0-6.59-3c-4.39,0-7.76,3.16-7.76,8.41s3.49,8.41,8,8.41,6-1.95,6-1.95v-4.73h-5.75V474h8.66Z"/><path class="cls-2" d="M229.72,485.64a1.94,1.94,0,1,1,2-1.92A1.9,1.9,0,0,1,229.72,485.64Z"/><path class="cls-2" d="M265.06,485.7c-6,0-11-4.18-11-11s5-11,11-11,11,4.17,11,11S271.06,485.7,265.06,485.7Zm0-19.42c-4.36,0-7.94,3.13-7.94,8.35s3.61,8.35,7.94,8.35,7.95-3.16,7.95-8.35S269.42,466.28,265.06,466.28Z"/><path class="cls-2" d="M291.16,485.64a1.94,1.94,0,1,1,2-1.92A1.9,1.9,0,0,1,291.16,485.64Z"/><path class="cls-2" d="M335.64,485.33h-3.33l-2.2-5.57H321l-2.2,5.57h-3.15l8.69-21.4h2.63Zm-6.36-8.07-3.75-9.59-3.74,9.59Z"/><path class="cls-2" d="M349.56,485.64a1.94,1.94,0,1,1,2-1.92A1.9,1.9,0,0,1,349.56,485.64Z"/><path class="cls-2" d="M386.13,466.5h-6v18.83h-3V466.5h-6V464h15Z"/><path class="cls-2" d="M400.29,485.64a1.94,1.94,0,1,1,2-1.92A1.9,1.9,0,0,1,400.29,485.64Z"/></svg>